<svg width="24" height="24" viewBox="0 0 24 24" fill="none" xmlns="http://www.w3.org/2000/svg">
<g clip-path="url(#clip0_22_498)">
<path d="M21.7126 4.95413C21.5698 4.75491 21.4204 4.56009 21.2622 4.36894C19.0613 1.70217 15.728 0 12 0C8.27269 0 4.9387 1.70217 2.73778 4.36889C2.57958 4.56005 2.43014 4.75486 2.28806 4.95408C0.847406 6.93384 0 9.36769 0 12C0 14.6397 0.851062 17.0852 2.29833 19.065C2.44481 19.2678 2.59861 19.4663 2.75977 19.6582C4.96144 22.3088 8.2837 24 12 24C15.7354 24 19.0694 22.2935 21.2695 19.6201C21.4314 19.4289 21.5852 19.2304 21.728 19.0275C23.1599 17.0515 24 14.625 24 12C24 9.36769 23.1526 6.93384 21.7126 4.95413ZM22.1104 11.6235H18.082C18.0527 10.0972 17.8462 8.64989 17.4961 7.34766C18.4878 7.00927 19.3989 6.58083 20.2046 6.07908C21.3435 7.64794 22.0335 9.55959 22.1104 11.6235ZM12.3743 1.96434C14.1262 2.20753 15.676 4.1257 16.56 6.85252C15.2724 7.21945 13.8603 7.43405 12.3743 7.4663V1.96434ZM11.6242 1.96434V7.4663C10.1382 7.43405 8.72606 7.21945 7.43845 6.85252C8.32252 4.12575 9.8723 2.20753 11.6242 1.96434ZM11.6242 8.21559V11.6235H6.66652C6.69581 10.1814 6.89578 8.80664 7.22827 7.56811C8.58253 7.95703 10.0642 8.18409 11.6242 8.21559ZM11.6242 12.3735V15.7815C10.0664 15.8189 8.58544 16.0503 7.23192 16.4422C6.89719 15.2007 6.69652 13.8208 6.66647 12.3735H11.6242ZM11.6242 16.5308V22.0327C9.87595 21.7903 8.32833 19.8794 7.44356 17.1606C8.74805 16.7827 10.1594 16.5681 11.6242 16.5308ZM12.3743 22.0327V16.5293C13.8603 16.5557 15.2739 16.7681 16.563 17.1328C15.6797 19.8662 14.1284 21.7896 12.3743 22.0327ZM12.3743 15.7793V12.3735H17.332C17.3027 13.8091 17.1043 15.1794 16.7746 16.4136C15.419 16.0283 13.935 15.8057 12.3743 15.7793ZM12.3743 11.6235V8.21559C13.9343 8.18409 15.416 7.95778 16.771 7.56886C17.1028 8.80664 17.3027 10.1821 17.332 11.6235H12.3743ZM19.7475 5.49389C19.0137 5.94141 18.1845 6.32372 17.2837 6.63136C16.664 4.71239 15.7243 3.16261 14.5928 2.21484C16.6362 2.75611 18.4292 3.91917 19.7475 5.49389ZM9.40575 2.21484C8.27414 3.16331 7.33444 4.71239 6.71484 6.63061C5.81541 6.32297 4.98558 5.94141 4.25245 5.49389C5.57081 3.91992 7.36233 2.75686 9.40575 2.21484ZM3.79542 6.07913C4.60111 6.58083 5.51147 7.00856 6.50245 7.3477C6.15234 8.64994 5.94581 10.0972 5.91652 11.6236H1.88967C1.96655 9.55959 2.65725 7.64794 3.79542 6.07913ZM1.88967 12.3735H5.91652C5.94581 13.9058 6.15384 15.3589 6.50686 16.6656C5.51808 17.0054 4.60988 17.4324 3.80644 17.9326C2.66016 16.3586 1.96584 14.4426 1.88967 12.3735ZM4.27148 18.5251C5.01562 18.0703 5.84105 17.6909 6.72216 17.3862C7.3418 19.2978 8.28075 20.841 9.41016 21.7852C7.3755 21.2461 5.58839 20.0903 4.27148 18.5251ZM14.5884 21.7852C15.7251 20.8359 16.6677 19.2803 17.2874 17.3533C18.1912 17.6602 19.0239 18.0432 19.7593 18.4914C18.4365 20.0735 16.6377 21.2417 14.5884 21.7852ZM20.22 17.9026C19.4106 17.3994 18.4958 16.9717 17.5005 16.634C17.8476 15.3354 18.0527 13.894 18.082 12.3735H22.1103C22.0349 14.4309 21.3516 16.333 20.22 17.9026Z" fill="black"/>
</g>
<defs>
<clipPath id="clip0_22_498">
<rect width="24" height="24" fill="white"/>
</clipPath>
</defs>
</svg>
