<!DOCTYPE svg PUBLIC "-//W3C//DTD SVG 1.1//EN" "http://www.w3.org/Graphics/SVG/1.1/DTD/svg11.dtd">
<!-- Uploaded to: SVG Repo, www.svgrepo.com, Transformed by: SVG Repo Mixer Tools -->
<svg fill="#818181" version="1.1" id="Layer_1" xmlns="http://www.w3.org/2000/svg" xmlns:xlink="http://www.w3.org/1999/xlink" viewBox="0 0 512.003 512.003" xml:space="preserve" width="64px" height="64px" stroke="#818181">
<g id="SVGRepo_bgCarrier" stroke-width="0"/>
<g id="SVGRepo_tracerCarrier" stroke-linecap="round" stroke-linejoin="round"/>
<g id="SVGRepo_iconCarrier"> <g> <g> <path d="M439.853,151.006l3.846-15.712l-34.041-8.334l17.95-73.321L286.2,19.023l-17.95,73.323l-34.042-8.333l-3.845,15.712 l13.059,3.197l-11.739,47.086l-12.859-3.148l-3.846,15.712l12.792,3.132l-11.739,47.086l-12.592-3.082l-3.846,15.712l12.525,3.066 l-11.739,47.086l-12.325-3.017l-3.845,15.712l12.258,3.001l-11.74,47.082l-12.057-2.952l-3.846,15.712l11.991,2.935 l-35.346,141.774h-39.426v16.176h280.38v-16.176h-46.643l24.215-96.932l14.319,3.505l3.846-15.712l-14.244-3.487l11.762-47.081 l14.022,3.432l3.846-15.712l-13.948-3.414l11.762-47.081l13.725,3.36l3.846-15.712l-13.65-3.342l11.762-47.08l13.427,3.287 l3.846-15.712l-13.352-3.269l11.762-47.081L439.853,151.006z M298.065,38.581l109.983,26.924l-14.103,57.609l-15.712-3.847 l10.898-44.517l-15.712-3.846l-10.898,44.517l-15.712-3.847l10.898-44.517l-15.711-3.846l-10.898,44.517l-15.712-3.847 l10.898-44.517l-15.711-3.846l-10.898,44.517l-15.712-3.847L298.065,38.581z M258.757,289.861l11.539-47.135l26.186,6.41 l-11.539,47.135L258.757,289.861z M281.097,311.983l-11.539,47.136l-26.186-6.411l11.539-47.136L281.097,311.983z M311.866,186.289l-11.539,47.135l-26.186-6.41l11.539-47.135L311.866,186.289z M289.527,164.167l11.539-47.136l26.186,6.411 l-11.539,47.135L289.527,164.167z M296.808,315.828l26.187,6.411l-11.539,47.136l-26.187-6.411L296.808,315.828z M300.654,300.118 l11.539-47.135l26.187,6.411l-11.539,47.136L300.654,300.118z M316.04,237.27l11.539-47.135l26.187,6.411l-11.539,47.135 L316.04,237.27z M331.424,174.423l11.539-47.135l26.187,6.411l-11.539,47.135L331.424,174.423z M259.133,106.767l26.22,6.419 l-11.539,47.136l-26.42-6.468L259.133,106.767z M243.482,169.548l26.487,6.484l-11.539,47.135l-26.688-6.533L243.482,169.548z M227.829,232.33l26.755,6.549l-11.539,47.135l-26.955-6.599L227.829,232.33z M212.177,295.112l27.022,6.615l-11.539,47.136 l-27.222-6.664L212.177,295.112z M195.587,495.82l23.387-88.803l0.035-0.137c1.296-5.294,6.66-8.549,11.952-7.251 c5.273,1.291,8.52,6.615,7.266,11.888l-22.349,84.303H195.587z M269.641,495.821l19.154-71.681l0.042-0.164 c0.629-2.564,2.217-4.732,4.474-6.101c2.257-1.37,4.912-1.778,7.479-1.15c2.564,0.628,4.732,2.216,6.102,4.474 c1.356,2.234,1.77,4.858,1.169,7.398l-18.141,67.224H269.641z M323.106,495.821h-16.431l17.031-63.115l0.046-0.183 c1.655-6.761,0.579-13.763-3.032-19.715s-9.324-10.14-16.084-11.795c-13.929-3.409-28.034,5.122-31.489,19.027l-20.251,75.781 h-20.285l21.273-80.244l0.039-0.15c3.416-13.959-5.16-28.094-19.118-31.51c-13.932-3.407-28.042,5.129-31.492,19.042 l-24.456,92.861h-16.72l34.386-137.927l151.756,37.149L323.106,495.821z M352.202,379.35l-25.035-6.128l11.539-47.136 l25.258,6.183L352.202,379.35z M367.885,316.575l-25.331-6.201l11.539-47.135l25.554,6.256L367.885,316.575z M383.567,253.801 l-25.629-6.274l11.539-47.135l25.852,6.328L383.567,253.801z M399.249,191.026l-25.926-6.346l11.539-47.135l20.949,5.129 l4.604,1.127l0.597,0.145L399.249,191.026z"/> </g> </g> <g> <g> <rect x="407.012" y="28.612" transform="matrix(0.2378 -0.9713 0.9713 0.2378 280.7419 431.1645)" width="16.176" height="16.176"/> </g> </g> <g> <g> <rect x="370.339" y="19.651" transform="matrix(0.2378 -0.9713 0.9713 0.2378 261.4916 388.7127)" width="16.176" height="16.176"/> </g> </g> <g> <g> <rect x="333.685" y="10.677" transform="matrix(0.2378 -0.9713 0.9713 0.2378 242.2727 346.2708)" width="16.176" height="16.176"/> </g> </g> <g> <g> <rect x="297.024" y="1.691" transform="matrix(0.2378 -0.9713 0.9713 0.2378 223.0557 303.8111)" width="16.174" height="16.176"/> </g> </g> <g> <g> <rect x="68.304" y="495.827" width="16.176" height="16.176"/> </g> </g> <g> <g> <rect x="407.984" y="495.827" width="16.176" height="16.176"/> </g> </g> </g>
</svg>