<!DOCTYPE svg PUBLIC "-//W3C//DTD SVG 1.1//EN" "http://www.w3.org/Graphics/SVG/1.1/DTD/svg11.dtd">
<!-- Uploaded to: SVG Repo, www.svgrepo.com, Transformed by: SVG Repo Mixer Tools -->
<svg width="64px" height="64px" viewBox="0 0 48 48" xmlns="http://www.w3.org/2000/svg" fill="#ff0000" stroke="#ff0000" stroke-width="1.7759999999999998">
<g id="SVGRepo_bgCarrier" stroke-width="0"/>
<g id="SVGRepo_tracerCarrier" stroke-linecap="round" stroke-linejoin="round"/>
<g id="SVGRepo_iconCarrier">
<defs>
<style>.a{fill:none;stroke:#fd292f;stroke-linecap:round;stroke-linejoin:round;}</style>
</defs>
<path class="a" d="M24,12.72a4.5,4.5,0,1,1-4.5,4.5A4.5,4.5,0,0,1,24,12.72Zm0,11.19c5,0,9,1.4,9,3.07v4.3H15V27C15,25.31,19,23.91,24,23.91Z"/>
<path class="a" d="M22.2,4.86,6.69,11.25V27C6.69,35.44,24,43.5,24,43.5S41.31,35.44,41.31,27V11.25L25.8,4.86A4.68,4.68,0,0,0,22.2,4.86Z"/>
</g>
</svg>