<svg width="16" height="21" viewBox="0 0 16 21" fill="none" xmlns="http://www.w3.org/2000/svg">
<path d="M6.56006 8.54559H9.44006" stroke="#0F0F0F" stroke-width="2" stroke-miterlimit="10" stroke-linecap="round" stroke-linejoin="round"/>
<path d="M13.28 8.54559H13.76C14.0288 8.54559 14.24 8.75679 14.24 9.02559V19C14.24 19.2688 14.0288 19.48 13.76 19.48H2.24001C1.97121 19.48 1.76001 19.2688 1.76001 19V9.02559C1.76001 8.75679 1.97121 8.54559 2.24001 8.54559H2.72001" stroke="#0F0F0F" stroke-width="2" stroke-miterlimit="10" stroke-linecap="round" stroke-linejoin="round"/>
<path d="M11.36 8.54559V4.59999C11.36 2.74719 9.85281 1.23999 8.00001 1.23999C6.14721 1.23999 4.64001 2.74719 4.64001 4.59999V8.54559" stroke="#0F0F0F" stroke-width="2" stroke-miterlimit="10" stroke-linecap="round" stroke-linejoin="round"/>
<path d="M8.00004 14.44C8.53025 14.44 8.96004 14.0102 8.96004 13.48C8.96004 12.9498 8.53025 12.52 8.00004 12.52C7.46983 12.52 7.04004 12.9498 7.04004 13.48C7.04004 14.0102 7.46983 14.44 8.00004 14.44Z" stroke="#0F0F0F" stroke-width="2" stroke-miterlimit="10" stroke-linecap="round" stroke-linejoin="round"/>
<path d="M8 16.36V17.32" stroke="#0F0F0F" stroke-width="2" stroke-miterlimit="10" stroke-linecap="round" stroke-linejoin="round"/>
</svg>
