<svg width="24" height="19" viewBox="0 0 24 19" fill="none" xmlns="http://www.w3.org/2000/svg">
<path fill-rule="evenodd" clip-rule="evenodd" d="M4.5 0C5.32844 0 6 0.671565 6 1.5V12.8787L6.43933 12.4394C7.02513 11.8536 7.97487 11.8536 8.56067 12.4394C9.14645 13.0251 9.14645 13.9749 8.56067 14.5606L4.5 18.6213L0.43934 14.5606C-0.146447 13.9749 -0.146447 13.0251 0.43934 12.4394C1.02513 11.8536 1.97487 11.8536 2.56067 12.4394L3 12.8787V1.5C3 0.671565 3.67158 0 4.5 0ZM13.5 13.5H15C15.8284 13.5 16.5 14.1716 16.5 15C16.5 15.7693 15.9209 16.4033 15.1749 16.4899L15 16.5H13.5C12.6716 16.5 12 15.8284 12 15C12 14.2307 12.5791 13.5967 13.3251 13.5101L13.5 13.5ZM13.5 7.5H19.5C20.3284 7.5 21 8.17157 21 9C21 9.76925 20.4209 10.4033 19.6749 10.4899L19.5 10.5H13.5C12.6716 10.5 12 9.82843 12 9C12 8.23075 12.5791 7.59674 13.3251 7.51009L13.5 7.5ZM22.5 1.5C23.3284 1.5 24 2.17157 24 3C24 3.76925 23.4209 4.40326 22.6749 4.48991L22.5 4.5H13.5C12.6716 4.5 12 3.82843 12 3C12 2.23075 12.5791 1.59674 13.3251 1.51009L13.5 1.5H22.5Z" fill="black"/>
</svg>
