<svg width="22" height="23" viewBox="0 0 22 23" fill="none" xmlns="http://www.w3.org/2000/svg">
<path d="M21 11.5H15.333V9.5C15.333 9.23478 15.2276 8.98043 15.0401 8.79289C14.8526 8.60536 14.5982 8.5 14.333 8.5H7.667C7.40178 8.5 7.14743 8.60536 6.95989 8.79289C6.77236 8.98043 6.667 9.23478 6.667 9.5V14.5H1C0.734784 14.5 0.48043 14.6054 0.292893 14.7929C0.105357 14.9804 0 15.2348 0 15.5V21.5C0 21.7652 0.105357 22.0196 0.292893 22.2071C0.48043 22.3946 0.734784 22.5 1 22.5H21C21.2652 22.5 21.5196 22.3946 21.7071 22.2071C21.8946 22.0196 22 21.7652 22 21.5V12.5C22 12.2348 21.8946 11.9804 21.7071 11.7929C21.5196 11.6054 21.2652 11.5 21 11.5ZM6.667 20.5H2V16.5H6.667V20.5ZM13.333 12.5V20.5H8.667V10.5H13.333V12.5ZM20 20.5H15.333V13.5H20V20.5ZM14 2.792L12.333 4.167L12.854 6.5L11 5.167L9.146 6.5L9.667 4.167L8 2.792L10 2.5L11 0.5L12 2.5L14 2.792Z" fill="black"/>
</svg>
