<svg width="18" height="19" viewBox="0 0 18 19" fill="none" xmlns="http://www.w3.org/2000/svg">
<path d="M10.914 9.71997L17.6132 3.02082C17.8628 2.76613 18.0018 2.42323 18 2.06664C17.9982 1.71004 17.8557 1.36856 17.6036 1.1164C17.3514 0.864246 17.0099 0.721789 16.6533 0.719988C16.2967 0.718187 15.9538 0.857187 15.6991 1.10678L9 7.80593L2.30085 1.10678C2.04616 0.857187 1.70326 0.718187 1.34666 0.719988C0.990067 0.721789 0.648587 0.864246 0.396431 1.1164C0.144275 1.36856 0.00181833 1.71004 1.72863e-05 2.06664C-0.00178376 2.42323 0.137216 2.76613 0.386813 3.02082L7.08596 9.71997L0.386813 16.4191C0.137216 16.6738 -0.00178376 17.0167 1.72863e-05 17.3733C0.00181833 17.7299 0.144275 18.0714 0.396431 18.3235C0.648587 18.5757 0.990067 18.7182 1.34666 18.72C1.70326 18.7218 2.04616 18.5828 2.30085 18.3332L9 11.634L15.6991 18.3332C15.9538 18.5828 16.2967 18.7218 16.6533 18.72C17.0099 18.7182 17.3514 18.5757 17.6036 18.3235C17.8557 18.0714 17.9982 17.7299 18 17.3733C18.0018 17.0167 17.8628 16.6738 17.6132 16.4191L10.914 9.71997Z" fill="black"/>
</svg>
